<?xml version="1.0" standalone="no"?>
<!DOCTYPE svg PUBLIC "-//W3C//DTD SVG 20010904//EN"
 "http://www.w3.org/TR/2001/REC-SVG-20010904/DTD/svg10.dtd">
<svg version="1.0" xmlns="http://www.w3.org/2000/svg"
 width="244.000000pt" height="220.000000pt" viewBox="0 0 244.000000 220.000000"
 preserveAspectRatio="xMidYMid meet">

<g transform="translate(0.000000,220.000000) scale(0.100000,-0.100000)"
fill="#000000" stroke="none">
<path d="M1127 1783 c-4 -3 -7 -44 -7 -89 l0 -83 -87 -3 -88 -3 -3 -102 -3
-103 44 0 c24 0 65 -3 91 -6 l46 -7 0 -83 c0 -99 -3 -97 130 -92 l85 3 5 89 5
89 80 2 c44 2 83 3 88 4 4 1 7 48 7 106 l0 105 -90 0 -90 0 0 90 0 90 -103 0
c-57 0 -107 -3 -110 -7z"/>
<path d="M761 1593 c-48 -145 -54 -209 -26 -268 l19 -40 6 90 c5 62 17 118 38
180 35 98 39 136 18 154 -11 9 -21 -11 -55 -116z"/>
<path d="M1646 1704 c-11 -30 -6 -73 18 -141 33 -92 50 -183 44 -238 -3 -25
-4 -45 -1 -45 2 0 13 21 25 46 17 39 19 58 13 113 -4 36 -14 82 -22 101 -24
57 -52 144 -53 163 0 21 -16 22 -24 1z"/>
<path d="M661 1581 c-57 -115 -61 -129 -61 -192 0 -95 31 -162 112 -242 65
-64 70 -67 178 -113 84 -36 174 -88 227 -130 23 -19 44 -34 47 -34 3 0 10 19
17 42 8 33 8 56 -1 98 -20 88 -51 130 -154 209 -58 44 -113 96 -143 136 -26
35 -51 64 -55 65 -15 0 -7 -86 11 -127 11 -23 38 -62 61 -87 23 -25 40 -50 38
-55 -4 -14 -105 24 -153 57 -95 66 -123 199 -70 338 36 92 39 115 22 139 -14
19 -19 12 -76 -104z"/>
<path d="M1727 1683 c-13 -13 -7 -53 20 -120 37 -97 39 -219 3 -283 -14 -24
-44 -59 -68 -77 -43 -33 -146 -72 -158 -60 -4 4 11 26 34 51 66 71 102 158 85
204 -8 21 -12 18 -51 -38 -26 -37 -80 -90 -137 -135 -52 -41 -106 -91 -120
-110 -47 -61 -68 -169 -45 -230 l10 -26 43 34 c64 52 168 111 259 148 66 26
94 45 143 94 85 85 120 158 120 251 -1 66 -5 80 -58 188 -53 110 -65 125 -80
109z"/>
<path d="M142 573 c2 -50 7 -78 16 -81 8 -2 12 7 12 27 0 32 3 35 52 45 19 4
30 15 34 31 10 38 -11 55 -68 55 l-49 0 3 -77z m86 35 c4 -19 -35 -35 -50 -20
-6 6 -8 18 -4 27 8 21 50 16 54 -7z"/>
<path d="M298 625 c-14 -31 0 -50 42 -59 18 -3 30 -12 30 -21 0 -20 -28 -31
-43 -16 -17 17 -37 14 -30 -5 10 -27 52 -37 79 -19 35 23 31 53 -10 70 -41 17
-53 32 -37 48 8 8 18 7 36 -3 29 -16 43 -7 25 15 -7 8 -28 15 -46 15 -27 0
-37 -5 -46 -25z"/>
<path d="M440 645 c0 -3 11 -28 25 -55 14 -27 25 -61 25 -75 0 -16 6 -25 15
-25 10 0 15 10 15 33 0 17 11 52 25 76 29 51 29 51 9 51 -8 0 -22 -16 -30 -35
-16 -40 -26 -39 -44 5 -7 16 -19 30 -26 30 -8 0 -14 -2 -14 -5z"/>
<path d="M622 627 c-67 -71 42 -178 111 -109 l21 22 -21 0 c-12 0 -25 -4 -28
-10 -9 -15 -42 -12 -59 6 -35 34 -5 103 38 89 12 -4 32 -9 46 -11 l25 -5 -24
20 c-32 28 -82 27 -109 -2z"/>
<path d="M790 570 c0 -63 3 -80 14 -80 10 0 16 13 18 38 3 34 6 37 33 37 27 0
31 -4 35 -34 3 -19 11 -36 18 -39 9 -3 12 17 12 77 0 65 -3 81 -15 81 -10 0
-15 -10 -15 -30 0 -28 -3 -30 -35 -30 -32 0 -35 2 -35 30 0 20 -5 30 -15 30
-12 0 -15 -16 -15 -80z"/>
<path d="M1040 569 l0 -82 40 6 c64 8 90 30 90 77 0 53 -29 80 -87 80 l-43 0
0 -81z m84 48 c24 -18 24 -67 0 -84 -30 -22 -59 -12 -62 21 -8 67 19 94 62 63z"/>
<path d="M1210 570 c0 -64 3 -80 15 -80 12 0 15 16 15 80 0 64 -3 80 -15 80
-12 0 -15 -16 -15 -80z"/>
<path d="M1301 583 c-12 -38 -25 -74 -28 -80 -8 -21 26 -14 37 7 7 13 21 20
40 20 20 0 31 -6 35 -20 3 -11 13 -20 22 -20 8 0 13 6 11 13 -3 6 -15 42 -27
80 -19 56 -26 67 -45 67 -18 0 -26 -11 -45 -67z m69 -20 c0 -7 -11 -13 -25
-13 -29 0 -29 -1 -14 37 10 27 11 27 25 9 8 -11 14 -26 14 -33z"/>
<path d="M1469 631 c-47 -38 -22 -120 41 -136 34 -8 80 27 80 61 0 21 -5 24
-35 24 -19 0 -35 -4 -35 -10 0 -5 9 -10 20 -10 23 0 26 -10 8 -28 -28 -28 -78
2 -78 46 0 31 46 59 71 44 10 -7 26 -12 35 -12 16 0 15 2 -1 20 -23 25 -75 26
-106 1z"/>
<path d="M1632 573 c2 -50 7 -78 16 -81 8 -2 12 11 12 47 0 28 4 51 9 51 5 0
23 -22 41 -50 47 -73 60 -67 60 30 0 63 -3 80 -14 80 -11 0 -16 -15 -18 -52
l-3 -53 -35 52 c-20 31 -43 53 -53 53 -16 0 -18 -8 -15 -77z"/>
<path d="M1832 630 c-23 -22 -29 -68 -12 -99 5 -10 23 -24 39 -31 26 -10 35
-10 63 7 29 17 33 25 36 65 3 39 -1 49 -20 62 -31 22 -80 20 -106 -4z m88 -20
c11 -11 20 -27 20 -35 0 -17 -35 -55 -51 -55 -65 0 -67 108 -1 110 6 0 21 -9
32 -20z"/>
<path d="M2012 638 c-25 -25 -7 -68 29 -68 25 0 45 -28 31 -42 -9 -9 -18 -8
-37 2 -34 18 -46 3 -16 -21 15 -13 31 -17 45 -13 58 18 61 62 6 80 -36 12 -50
36 -30 49 7 4 17 2 23 -4 6 -6 19 -11 29 -11 16 0 17 3 8 20 -12 23 -68 28
-88 8z"/>
<path d="M2150 570 c0 -64 3 -80 15 -80 12 0 15 16 15 80 0 64 -3 80 -15 80
-12 0 -15 -16 -15 -80z"/>
<path d="M2236 634 c-19 -18 -19 -20 -6 -43 5 -10 23 -21 40 -24 17 -4 30 -13
30 -21 0 -20 -19 -31 -33 -17 -17 17 -47 14 -40 -5 14 -37 92 -37 106 0 10 26
-3 44 -35 51 -32 7 -47 30 -31 46 7 7 17 6 31 -2 25 -16 40 -5 22 16 -16 20
-64 19 -84 -1z"/>
</g>
</svg>
